<svg width="122" height="37" viewBox="0 0 122 37" fill="none" xmlns="http://www.w3.org/2000/svg">
<g filter="url(#filter0_d)">
<rect x="4.00061" y="13.4717" width="32" height="1.54334" rx="0.771672" fill="#E3B873"/>
<rect x="86.0006" y="13.4717" width="32" height="1.54334" rx="0.771672" fill="#E3B873"/>
<g clip-path="url(#clip0)">
<path d="M60.5 9.35478C62.3054 9.35478 63.7742 7.88601 63.7742 6.08059C63.7742 4.27517 62.3054 2.8064 60.5 2.8064C58.6946 2.8064 57.2258 4.27517 57.2258 6.08059C57.2258 7.88601 58.6946 9.35478 60.5 9.35478ZM60.5 3.74188C61.7895 3.74188 62.8387 4.7911 62.8387 6.08059C62.8387 7.20975 62.0336 8.15459 60.9677 8.37202V6.54833H60.0322V8.37202C58.9663 8.15459 58.1613 7.2102 58.1613 6.08059C58.1613 4.7911 59.2105 3.74188 60.5 3.74188Z" fill="#E3B873"/>
<path d="M60.0322 5.14523C60.0322 4.88691 60.2416 4.67749 60.4999 4.67749C60.7583 4.67749 60.9677 4.88691 60.9677 5.14523C60.9677 5.40356 60.7583 5.61297 60.4999 5.61297C60.2416 5.61297 60.0322 5.40356 60.0322 5.14523Z" fill="#E3B873"/>
<path d="M60.5011 6.69775L60.5011 8.44864" stroke="#E3B873" stroke-linecap="round"/>
<path d="M73.1683 22.1373L70.7903 21.6089V20.9253C71.6374 20.3328 72.1935 19.3519 72.1935 18.2424V17.3069C72.1935 15.6609 70.9714 14.2983 69.3871 14.0702V11.8452L65.0646 10.1158L65.7322 9.44848L65.0641 8.44653C65.1989 8.18685 65.3113 7.91598 65.3996 7.63644L66.5806 7.3996V4.76169L65.4001 4.52531C65.3117 4.24576 65.1989 3.97489 65.0646 3.71521L65.7326 2.71327L63.8678 0.848467L62.8659 1.51651C62.6062 1.38176 62.3353 1.26939 62.0558 1.181L61.8189 0H59.1811L58.9447 1.18055C58.6651 1.26893 58.3942 1.38176 58.1346 1.51605L57.1326 0.848011L55.2678 2.71281L55.9359 3.71476C55.8011 3.97444 55.6887 4.24531 55.6004 4.52486L54.4194 4.76169V7.3996L55.5999 7.63598C55.6883 7.91553 55.8011 8.1864 55.9354 8.44608L55.2674 9.44802L55.9349 10.1154L51.6129 11.8447V14.0697C50.0286 14.2979 48.8065 15.6604 48.8065 17.3065V18.2419C48.8065 19.3519 49.3626 20.3328 50.2097 20.9248V21.6082L47.8317 22.1369C46.753 22.3767 46 23.3156 46 24.4199V29H75V24.4199C75 23.3156 74.247 22.3767 73.1683 22.1373ZM69.8548 21.8553C69.7388 22.0343 69.4166 22.4516 68.9194 22.4516C68.4222 22.4516 68.0999 22.0339 67.9839 21.8553V21.3786C68.2803 21.467 68.5944 21.5161 68.9194 21.5161C69.2444 21.5161 69.5584 21.467 69.8548 21.3782V21.8553ZM71.2581 17.3065V18.2419C71.2581 19.5314 70.2088 20.5806 68.9194 20.5806C67.6299 20.5806 66.5806 19.5314 66.5806 18.2419V17.3065C66.5806 16.017 67.6299 14.9677 68.9194 14.9677C70.2088 14.9677 71.2581 16.017 71.2581 17.3065ZM68.4516 12.4778V14.0697C66.8673 14.2979 65.6452 15.6604 65.6452 17.3065V18.2419C65.6452 19.3519 66.2013 20.3328 67.0484 20.9248V21.6082L64.7097 22.128L62.371 21.6082V20.9248C63.2181 20.3324 63.7742 19.3515 63.7742 18.2419V17.3065C63.7742 15.6604 62.5521 14.2979 60.9677 14.0697V12.1613H61.8189L62.0553 10.9807C62.3349 10.8924 62.6058 10.7795 62.8654 10.6452L63.8674 11.3133L64.3449 10.8357L68.4516 12.4778ZM65.6452 28.0645H55.3548V24.4199C55.3548 23.7571 55.8066 23.1939 56.4536 23.0498L58.8825 22.5101C59.15 22.8645 59.6819 23.3871 60.5 23.3871C61.3181 23.3871 61.85 22.8645 62.1175 22.5105L64.5464 23.0502C65.1934 23.1939 65.6452 23.7575 65.6452 24.4199V28.0645ZM60.5 14.9677C61.7895 14.9677 62.8387 16.017 62.8387 17.3065V18.2419C62.8387 19.5314 61.7895 20.5806 60.5 20.5806C59.2105 20.5806 58.1613 19.5314 58.1613 18.2419V17.3065C58.1613 16.017 59.2105 14.9677 60.5 14.9677ZM60.5 21.5161C60.825 21.5161 61.139 21.467 61.4355 21.3782V21.8548C61.3195 22.0343 60.9972 22.4516 60.5 22.4516C60.0028 22.4516 59.6805 22.0339 59.5645 21.8553V21.3786C59.861 21.467 60.175 21.5161 60.5 21.5161ZM55.3548 6.63266V5.52863L56.352 5.32901L56.4246 5.04376C56.5242 4.65161 56.679 4.27797 56.8844 3.93287L57.0353 3.67936L56.471 2.83272L57.2516 2.05208L58.0983 2.61666L58.3518 2.46547C58.6969 2.26014 59.0705 2.10484 59.4627 2.00572L59.7479 1.93309L59.948 0.935484H61.052L61.2516 1.93263L61.5369 2.00526C61.929 2.10484 62.3027 2.25969 62.6478 2.46501L62.9013 2.61597L63.7479 2.05162L64.5286 2.83226L63.964 3.6789L64.1152 3.93241C64.3205 4.27751 64.4758 4.65115 64.5749 5.0433L64.6476 5.32856L65.6452 5.52863V6.63266L64.648 6.83228L64.5754 7.11753C64.4758 7.50968 64.321 7.88332 64.1156 8.22842L63.9647 8.48193L64.529 9.32857L63.7484 10.1092L62.9017 9.54463L62.6482 9.69582C62.3031 9.90115 61.9295 10.0565 61.5373 10.1556L61.2521 10.2282L61.052 11.2258H59.948L59.7484 10.2287L59.4631 10.156C59.071 10.0565 58.6973 9.9016 58.3522 9.69628L58.0987 9.54532L57.2521 10.1097L56.4714 9.32903L57.036 8.48239L56.8848 8.22888C56.6795 7.88378 56.5242 7.51014 56.4251 7.11799L56.3524 6.83273L55.3548 6.63266ZM56.6551 10.8353L57.1326 11.3128L58.1346 10.6448C58.3942 10.7795 58.6651 10.8919 58.9447 10.9803L59.1811 12.1613H60.0323V14.0697C58.4479 14.2979 57.2258 15.6604 57.2258 17.3065V18.2419C57.2258 19.3519 57.7819 20.3328 58.629 20.9248V21.6082L56.2903 22.128L53.9516 21.6082V20.9248C54.7987 20.3324 55.3548 19.3515 55.3548 18.2419V17.3065C55.3548 15.6604 54.1327 14.2979 52.5484 14.0697V12.4778L56.6551 10.8353ZM49.7419 18.2419V17.3065C49.7419 16.017 50.7912 14.9677 52.0806 14.9677C53.3701 14.9677 54.4194 16.017 54.4194 17.3065V18.2419C54.4194 19.5314 53.3701 20.5806 52.0806 20.5806C50.7912 20.5806 49.7419 19.5314 49.7419 18.2419ZM52.0806 21.5161C52.4056 21.5161 52.7197 21.467 53.0161 21.3782V21.8548C52.9001 22.0343 52.5778 22.4516 52.0806 22.4516C51.5825 22.4516 51.2598 22.0325 51.1452 21.8553V21.3782C51.4416 21.467 51.7556 21.5161 52.0806 21.5161ZM46.9355 24.4199C46.9355 23.7571 47.3872 23.1939 48.0343 23.0498L50.4632 22.5101C50.7306 22.8645 51.2626 23.3871 52.0806 23.3871C52.8987 23.3871 53.4307 22.8645 53.6981 22.5105L55.0639 22.8141C54.6635 23.2354 54.4194 23.7987 54.4194 24.4199V28.0645H46.9355V24.4199ZM74.0645 28.0645H66.5806V24.4199C66.5806 23.7987 66.3365 23.235 65.9361 22.8136L67.3019 22.5101C67.5693 22.8645 68.1013 23.3871 68.9194 23.3871C69.7374 23.3871 70.2694 22.8645 70.5368 22.5105L72.9657 23.0502C73.6128 23.1939 74.0645 23.7575 74.0645 24.4199V28.0645Z" fill="#E3B873"/>
</g>
</g>
<defs>
<filter id="filter0_d" x="0.000610352" y="0" width="122" height="37" filterUnits="userSpaceOnUse" color-interpolation-filters="sRGB">
<feFlood flood-opacity="0" result="BackgroundImageFix"/>
<feColorMatrix in="SourceAlpha" type="matrix" values="0 0 0 0 0 0 0 0 0 0 0 0 0 0 0 0 0 0 127 0"/>
<feOffset dy="4"/>
<feGaussianBlur stdDeviation="2"/>
<feColorMatrix type="matrix" values="0 0 0 0 0 0 0 0 0 0 0 0 0 0 0 0 0 0 0.25 0"/>
<feBlend mode="normal" in2="BackgroundImageFix" result="effect1_dropShadow"/>
<feBlend mode="normal" in="SourceGraphic" in2="effect1_dropShadow" result="shape"/>
</filter>
<clipPath id="clip0">
<rect width="29" height="29" fill="white" transform="translate(46)"/>
</clipPath>
</defs>
</svg>
